<svg xmlns="http://www.w3.org/2000/svg" xmlns:xlink="http://www.w3.org/1999/xlink" width="900" zoomAndPan="magnify" viewBox="0 0 675 374.999991" height="500" preserveAspectRatio="xMidYMid meet" version="1.0"><defs><g/></defs><g fill="#ffffff" fill-opacity="1"><g transform="translate(153.024252, 204.426651)"><g><path d="M 5.890625 -20.921875 C 5.328125 -19.660156 5.023438 -18.863281 4.984375 -18.53125 C 4.566406 -17.03125 5.054688 -15.929688 6.453125 -15.234375 C 6.546875 -15.179688 6.800781 -15.0625 7.21875 -14.875 C 7.644531 -14.695312 7.976562 -14.5625 8.21875 -14.46875 C 10.226562 -13.476562 11.328125 -11.882812 11.515625 -9.6875 C 11.835938 -6.78125 11.554688 -4.507812 10.671875 -2.875 C 10.203125 -1.84375 9.5 -1.070312 8.5625 -0.5625 C 7.625 -0.0507812 6.640625 0.15625 5.609375 0.0625 C 3.179688 -0.164062 1.640625 -1.453125 0.984375 -3.796875 C 0.742188 -4.773438 0.484375 -6.34375 0.203125 -8.5 C 0.0664062 -9.519531 0.515625 -10.195312 1.546875 -10.53125 C 2.203125 -10.757812 2.765625 -10.664062 3.234375 -10.25 C 3.703125 -9.832031 3.84375 -9.316406 3.65625 -8.703125 C 3.414062 -7.910156 3.601562 -6.484375 4.21875 -4.421875 C 4.5 -3.722656 5 -3.3125 5.71875 -3.1875 C 6.445312 -3.070312 7.046875 -3.320312 7.515625 -3.9375 C 8.023438 -4.632812 8.328125 -5.648438 8.421875 -6.984375 C 8.515625 -8.316406 8.398438 -9.425781 8.078125 -10.3125 C 7.835938 -10.875 7.34375 -11.320312 6.59375 -11.65625 C 6.363281 -11.75 6.003906 -11.910156 5.515625 -12.140625 C 5.023438 -12.378906 4.660156 -12.566406 4.421875 -12.703125 C 2.546875 -13.597656 1.609375 -15.117188 1.609375 -17.265625 C 1.566406 -19.003906 2.015625 -20.597656 2.953125 -22.046875 C 3.554688 -23.078125 4.359375 -23.6875 5.359375 -23.875 C 6.367188 -24.0625 7.34375 -23.800781 8.28125 -23.09375 C 9.6875 -22.0625 10.484375 -20.820312 10.671875 -19.375 C 10.765625 -19 10.765625 -18.625 10.671875 -18.25 C 10.523438 -17.269531 10.007812 -16.78125 9.125 -16.78125 C 8.144531 -16.6875 7.582031 -17.203125 7.4375 -18.328125 C 7.300781 -19.117188 7.207031 -19.5625 7.15625 -19.65625 Z M 5.890625 -20.921875 "/></g></g></g><g fill="#ffffff" fill-opacity="1"><g transform="translate(177.456288, 204.426651)"><g><path d="M 12.84375 -12.359375 C 12.46875 -8.472656 11.882812 -5.734375 11.09375 -4.140625 C 10.4375 -2.640625 9.59375 -1.585938 8.5625 -0.984375 C 7.394531 -0.191406 6.203125 0.0507812 4.984375 -0.25 C 3.765625 -0.550781 2.875 -1.332031 2.3125 -2.59375 C 1.707031 -3.90625 1.285156 -5.3125 1.046875 -6.8125 C 0.160156 -11.726562 0 -16.523438 0.5625 -21.203125 C 0.65625 -21.953125 0.75 -22.515625 0.84375 -22.890625 C 1.164062 -24.054688 1.84375 -24.523438 2.875 -24.296875 C 3.8125 -24.054688 4.210938 -23.375 4.078125 -22.25 C 3.328125 -18.175781 3.347656 -13.359375 4.140625 -7.796875 C 4.285156 -6.804688 4.5 -5.867188 4.78125 -4.984375 C 4.957031 -4.046875 5.351562 -3.53125 5.96875 -3.4375 C 6.570312 -3.300781 7.132812 -3.703125 7.65625 -4.640625 C 8.125 -5.285156 8.378906 -5.820312 8.421875 -6.25 C 9.171875 -9.570312 9.59375 -11.703125 9.6875 -12.640625 C 9.832031 -13.671875 10.066406 -16.59375 10.390625 -21.40625 C 10.390625 -21.457031 10.398438 -21.53125 10.421875 -21.625 C 10.441406 -21.71875 10.453125 -21.785156 10.453125 -21.828125 C 10.785156 -22.859375 11.421875 -23.304688 12.359375 -23.171875 C 13.242188 -23.023438 13.6875 -22.460938 13.6875 -21.484375 C 13.644531 -20.171875 13.53125 -18.367188 13.34375 -16.078125 C 13.289062 -15.609375 13.207031 -14.941406 13.09375 -14.078125 C 12.976562 -13.210938 12.894531 -12.640625 12.84375 -12.359375 Z M 12.84375 -12.359375 "/></g></g></g><g fill="#ffffff" fill-opacity="1"><g transform="translate(203.994529, 204.426651)"><g><path d="M 6.3125 -10.171875 C 4.582031 -9.804688 3.625 -9.597656 3.4375 -9.546875 C 3.4375 -8.285156 3.460938 -7.328125 3.515625 -6.671875 C 3.554688 -5.828125 3.671875 -4.445312 3.859375 -2.53125 C 3.953125 -1.351562 3.484375 -0.71875 2.453125 -0.625 C 1.984375 -0.53125 1.570312 -0.632812 1.21875 -0.9375 C 0.875 -1.25 0.675781 -1.660156 0.625 -2.171875 C 0.34375 -5.453125 0.203125 -7.890625 0.203125 -9.484375 C 0.160156 -10.929688 0.207031 -15.117188 0.34375 -22.046875 C 0.394531 -22.140625 0.421875 -22.234375 0.421875 -22.328125 C 0.421875 -22.421875 0.421875 -22.515625 0.421875 -22.609375 C 0.515625 -23.828125 1.097656 -24.457031 2.171875 -24.5 C 3.628906 -24.644531 5.242188 -24.671875 7.015625 -24.578125 C 8.609375 -24.484375 9.8125 -23.859375 10.625 -22.703125 C 11.445312 -21.554688 11.835938 -20.332031 11.796875 -19.03125 C 11.648438 -16.78125 10.972656 -14.859375 9.765625 -13.265625 C 9.242188 -12.609375 9.148438 -11.929688 9.484375 -11.234375 L 12.421875 -3.234375 C 12.421875 -3.179688 12.441406 -3.097656 12.484375 -2.984375 C 12.535156 -2.867188 12.570312 -2.765625 12.59375 -2.671875 C 12.625 -2.578125 12.640625 -2.484375 12.640625 -2.390625 C 12.773438 -1.453125 12.421875 -0.863281 11.578125 -0.625 C 10.828125 -0.34375 10.222656 -0.578125 9.765625 -1.328125 C 9.671875 -1.472656 9.503906 -1.847656 9.265625 -2.453125 C 9.078125 -2.878906 8.703125 -3.875 8.140625 -5.4375 C 7.578125 -7.007812 7.132812 -8.21875 6.8125 -9.0625 C 6.570312 -9.664062 6.40625 -10.035156 6.3125 -10.171875 Z M 3.71875 -21.40625 C 3.675781 -20.382812 3.617188 -18.945312 3.546875 -17.09375 C 3.472656 -15.25 3.4375 -13.90625 3.4375 -13.0625 L 4.078125 -13.0625 C 5.335938 -13.15625 6.457031 -14.019531 7.4375 -15.65625 C 8.425781 -17.289062 8.753906 -18.71875 8.421875 -19.9375 C 8.191406 -20.78125 7.722656 -21.222656 7.015625 -21.265625 C 6.316406 -21.359375 5.21875 -21.40625 3.71875 -21.40625 Z M 3.71875 -21.40625 "/></g></g></g><g fill="#ffffff" fill-opacity="1"><g transform="translate(229.69029, 204.426651)"><g><path d="M 4 -20.703125 L 3.796875 -19.453125 C 3.742188 -19.023438 3.707031 -18.410156 3.6875 -17.609375 C 3.664062 -16.816406 3.65625 -16.210938 3.65625 -15.796875 L 5.6875 -15.796875 C 6.625 -15.796875 7.1875 -15.769531 7.375 -15.71875 C 8.351562 -15.394531 8.773438 -14.742188 8.640625 -13.765625 C 8.398438 -12.921875 7.789062 -12.5 6.8125 -12.5 L 4.421875 -12.5 C 4.378906 -12.5 4.3125 -12.484375 4.21875 -12.453125 C 4.125 -12.429688 4.015625 -12.394531 3.890625 -12.34375 C 3.773438 -12.300781 3.695312 -12.28125 3.65625 -12.28125 C 3.65625 -12.144531 3.640625 -11.910156 3.609375 -11.578125 C 3.585938 -11.253906 3.578125 -11.019531 3.578125 -10.875 C 3.578125 -10.082031 3.566406 -8.617188 3.546875 -6.484375 C 3.523438 -4.359375 3.515625 -2.898438 3.515625 -2.109375 C 3.515625 -1.492188 3.347656 -0.988281 3.015625 -0.59375 C 2.691406 -0.195312 2.296875 -0.0195312 1.828125 -0.0625 C 0.742188 -0.0625 0.203125 -0.742188 0.203125 -2.109375 C 0.203125 -5.191406 0.25 -8.703125 0.34375 -12.640625 C 0.4375 -16.847656 0.53125 -19.984375 0.625 -22.046875 C 0.625 -23.117188 1.1875 -23.75 2.3125 -23.9375 C 2.925781 -23.988281 3.882812 -24.0625 5.1875 -24.15625 C 7.34375 -24.289062 8.445312 -24.359375 8.5 -24.359375 C 9.800781 -24.453125 10.5 -23.960938 10.59375 -22.890625 C 10.738281 -21.765625 10.132812 -21.15625 8.78125 -21.0625 C 8.351562 -21.0625 7.707031 -21.035156 6.84375 -20.984375 C 5.976562 -20.941406 5.335938 -20.894531 4.921875 -20.84375 C 4.679688 -20.84375 4.375 -20.796875 4 -20.703125 Z M 4 -20.703125 "/></g></g></g><g fill="#ffffff" fill-opacity="1"><g transform="translate(252.928809, 204.426651)"><g><path d="M 5.609375 -9.765625 C 5.234375 -8.492188 4.675781 -6.503906 3.9375 -3.796875 C 3.882812 -3.609375 3.820312 -3.28125 3.75 -2.8125 C 3.6875 -2.34375 3.628906 -2.015625 3.578125 -1.828125 C 3.535156 -1.210938 3.347656 -0.753906 3.015625 -0.453125 C 2.691406 -0.148438 2.296875 -0.0195312 1.828125 -0.0625 C 0.742188 -0.15625 0.25 -0.835938 0.34375 -2.109375 C 0.394531 -2.710938 0.5625 -3.625 0.84375 -4.84375 C 2.53125 -11.488281 4.257812 -16.585938 6.03125 -20.140625 C 6.6875 -21.640625 7.390625 -22.789062 8.140625 -23.59375 C 8.847656 -24.476562 9.691406 -24.835938 10.671875 -24.671875 C 11.648438 -24.515625 12.375 -23.894531 12.84375 -22.8125 C 12.988281 -22.4375 13.15625 -21.828125 13.34375 -20.984375 C 13.757812 -18.128906 14.0625 -16.144531 14.25 -15.03125 C 14.488281 -13.8125 14.828125 -11.832031 15.265625 -9.09375 C 15.710938 -6.351562 16.050781 -4.28125 16.28125 -2.875 C 16.28125 -2.644531 16.328125 -2.34375 16.421875 -1.96875 C 16.421875 -0.9375 15.976562 -0.347656 15.09375 -0.203125 C 14.113281 -0.0234375 13.503906 -0.425781 13.265625 -1.40625 C 13.128906 -2.007812 12.894531 -3.15625 12.5625 -4.84375 C 12.425781 -5.59375 12.191406 -6.972656 11.859375 -8.984375 L 11.71875 -9.265625 C 11.113281 -9.316406 10.128906 -9.398438 8.765625 -9.515625 C 7.410156 -9.628906 6.359375 -9.710938 5.609375 -9.765625 Z M 9.96875 -20.421875 C 8.9375 -18.835938 7.835938 -16.40625 6.671875 -13.125 C 7.742188 -12.75 9.265625 -12.609375 11.234375 -12.703125 C 10.710938 -16.734375 10.289062 -19.304688 9.96875 -20.421875 Z M 9.96875 -20.421875 "/></g></g></g><g fill="#ffffff" fill-opacity="1"><g transform="translate(282.485956, 204.426651)"><g><path d="M 3.515625 -12 C 3.515625 -10.082031 3.890625 -8.351562 4.640625 -6.8125 C 5.003906 -5.96875 5.585938 -5.195312 6.390625 -4.5 C 7.328125 -3.65625 8.097656 -3.816406 8.703125 -4.984375 C 8.847656 -5.265625 8.988281 -5.6875 9.125 -6.25 C 9.269531 -6.8125 9.34375 -7.113281 9.34375 -7.15625 C 9.382812 -7.300781 9.441406 -7.523438 9.515625 -7.828125 C 9.585938 -8.128906 9.644531 -8.351562 9.6875 -8.5 C 9.96875 -9.25 10.53125 -9.578125 11.375 -9.484375 C 12.257812 -9.296875 12.703125 -8.753906 12.703125 -7.859375 C 12.609375 -5.242188 11.882812 -3.253906 10.53125 -1.890625 C 9.738281 -1.046875 8.765625 -0.585938 7.609375 -0.515625 C 6.460938 -0.453125 5.425781 -0.796875 4.5 -1.546875 C 2.90625 -2.804688 1.753906 -4.628906 1.046875 -7.015625 C -0.0664062 -10.953125 -0.0195312 -14.816406 1.1875 -18.609375 C 1.988281 -20.847656 3.140625 -22.484375 4.640625 -23.515625 C 6.035156 -24.503906 7.53125 -24.578125 9.125 -23.734375 C 10.34375 -23.117188 11.113281 -21.785156 11.4375 -19.734375 C 11.53125 -18.796875 11.15625 -18.207031 10.3125 -17.96875 C 9.476562 -17.738281 8.828125 -18.046875 8.359375 -18.890625 C 8.304688 -19.023438 8.242188 -19.207031 8.171875 -19.4375 C 8.109375 -19.675781 8.050781 -19.867188 8 -20.015625 C 7.675781 -20.898438 7.160156 -21.109375 6.453125 -20.640625 C 5.847656 -20.128906 5.40625 -19.640625 5.125 -19.171875 C 4.050781 -17.523438 3.515625 -15.132812 3.515625 -12 Z M 3.515625 -12 "/></g></g></g><g fill="#ffffff" fill-opacity="1"><g transform="translate(309.164615, 204.426651)"><g><path d="M 3.859375 -20.84375 C 3.765625 -19.257812 3.671875 -17.109375 3.578125 -14.390625 C 4.554688 -14.441406 5.46875 -14.515625 6.3125 -14.609375 C 6.96875 -14.703125 7.4375 -14.75 7.71875 -14.75 C 8.84375 -14.65625 9.429688 -14.160156 9.484375 -13.265625 C 9.578125 -12.285156 9.082031 -11.722656 8 -11.578125 C 7.675781 -11.484375 7.171875 -11.410156 6.484375 -11.359375 C 5.804688 -11.316406 5.375 -11.273438 5.1875 -11.234375 C 4.726562 -11.140625 4.171875 -11.066406 3.515625 -11.015625 C 3.609375 -8.304688 3.65625 -5.757812 3.65625 -3.375 C 3.976562 -3.375 4.429688 -3.382812 5.015625 -3.40625 C 5.597656 -3.425781 6.03125 -3.460938 6.3125 -3.515625 C 6.59375 -3.515625 7.003906 -3.535156 7.546875 -3.578125 C 8.085938 -3.628906 8.5 -3.675781 8.78125 -3.71875 C 9.988281 -3.71875 10.59375 -3.15625 10.59375 -2.03125 C 10.550781 -1.5625 10.34375 -1.160156 9.96875 -0.828125 C 9.59375 -0.503906 9.171875 -0.34375 8.703125 -0.34375 C 8.191406 -0.300781 7.429688 -0.253906 6.421875 -0.203125 C 5.421875 -0.160156 4.660156 -0.113281 4.140625 -0.0625 C 2.691406 0.0195312 1.6875 -0.257812 1.125 -0.90625 C 0.65625 -1.519531 0.421875 -2.082031 0.421875 -2.59375 C 0.421875 -3.582031 0.394531 -5.28125 0.34375 -7.6875 C 0.300781 -10.09375 0.28125 -11.765625 0.28125 -12.703125 C 0.28125 -14.710938 0.328125 -17.734375 0.421875 -21.765625 C 0.421875 -23.210938 1.125 -23.960938 2.53125 -24.015625 C 4.445312 -24.203125 5.941406 -24.316406 7.015625 -24.359375 C 7.535156 -24.359375 7.9375 -24.3125 8.21875 -24.21875 C 9.101562 -23.988281 9.476562 -23.425781 9.34375 -22.53125 C 9.25 -21.644531 8.753906 -21.15625 7.859375 -21.0625 C 7.484375 -21.0625 6.941406 -21.035156 6.234375 -20.984375 C 5.535156 -20.941406 5.023438 -20.921875 4.703125 -20.921875 C 4.609375 -20.921875 4.46875 -20.90625 4.28125 -20.875 C 4.09375 -20.851562 3.953125 -20.84375 3.859375 -20.84375 Z M 3.859375 -20.84375 "/></g></g></g><g fill="#ffffff" fill-opacity="1"><g transform="translate(332.824369, 204.426651)"><g/></g></g><g fill="#ffffff" fill-opacity="1"><g transform="translate(349.674065, 204.426651)"><g><path d="M 8.984375 -20.5 C 8.984375 -20.175781 8.9375 -19.6875 8.84375 -19.03125 C 8.519531 -14.113281 8.359375 -8.867188 8.359375 -3.296875 C 8.398438 -2.972656 8.398438 -2.625 8.359375 -2.25 C 8.210938 -1.40625 7.695312 -0.9375 6.8125 -0.84375 C 5.875 -0.84375 5.332031 -1.285156 5.1875 -2.171875 C 5.144531 -2.410156 5.125 -2.71875 5.125 -3.09375 C 5.070312 -8.28125 5.210938 -13.425781 5.546875 -18.53125 C 5.585938 -18.769531 5.617188 -19.097656 5.640625 -19.515625 C 5.671875 -19.929688 5.6875 -20.257812 5.6875 -20.5 L 3.65625 -20.5 C 3.414062 -20.5 3.082031 -20.484375 2.65625 -20.453125 C 2.238281 -20.429688 1.9375 -20.421875 1.75 -20.421875 C 1.238281 -20.515625 0.84375 -20.710938 0.5625 -21.015625 C 0.28125 -21.328125 0.160156 -21.71875 0.203125 -22.1875 C 0.296875 -23.164062 0.859375 -23.65625 1.890625 -23.65625 C 6.484375 -23.75 9.898438 -23.820312 12.140625 -23.875 C 13.410156 -23.875 14.046875 -23.332031 14.046875 -22.25 C 13.953125 -21.21875 13.316406 -20.65625 12.140625 -20.5625 L 10.59375 -20.5625 C 9.945312 -20.5625 9.410156 -20.539062 8.984375 -20.5 Z M 8.984375 -20.5 "/></g></g></g><g fill="#ffffff" fill-opacity="1"><g transform="translate(376.142096, 204.426651)"><g><path d="M 3.859375 -20.84375 C 3.765625 -19.257812 3.671875 -17.109375 3.578125 -14.390625 C 4.554688 -14.441406 5.46875 -14.515625 6.3125 -14.609375 C 6.96875 -14.703125 7.4375 -14.75 7.71875 -14.75 C 8.84375 -14.65625 9.429688 -14.160156 9.484375 -13.265625 C 9.578125 -12.285156 9.082031 -11.722656 8 -11.578125 C 7.675781 -11.484375 7.171875 -11.410156 6.484375 -11.359375 C 5.804688 -11.316406 5.375 -11.273438 5.1875 -11.234375 C 4.726562 -11.140625 4.171875 -11.066406 3.515625 -11.015625 C 3.609375 -8.304688 3.65625 -5.757812 3.65625 -3.375 C 3.976562 -3.375 4.429688 -3.382812 5.015625 -3.40625 C 5.597656 -3.425781 6.03125 -3.460938 6.3125 -3.515625 C 6.59375 -3.515625 7.003906 -3.535156 7.546875 -3.578125 C 8.085938 -3.628906 8.5 -3.675781 8.78125 -3.71875 C 9.988281 -3.71875 10.59375 -3.15625 10.59375 -2.03125 C 10.550781 -1.5625 10.34375 -1.160156 9.96875 -0.828125 C 9.59375 -0.503906 9.171875 -0.34375 8.703125 -0.34375 C 8.191406 -0.300781 7.429688 -0.253906 6.421875 -0.203125 C 5.421875 -0.160156 4.660156 -0.113281 4.140625 -0.0625 C 2.691406 0.0195312 1.6875 -0.257812 1.125 -0.90625 C 0.65625 -1.519531 0.421875 -2.082031 0.421875 -2.59375 C 0.421875 -3.582031 0.394531 -5.28125 0.34375 -7.6875 C 0.300781 -10.09375 0.28125 -11.765625 0.28125 -12.703125 C 0.28125 -14.710938 0.328125 -17.734375 0.421875 -21.765625 C 0.421875 -23.210938 1.125 -23.960938 2.53125 -24.015625 C 4.445312 -24.203125 5.941406 -24.316406 7.015625 -24.359375 C 7.535156 -24.359375 7.9375 -24.3125 8.21875 -24.21875 C 9.101562 -23.988281 9.476562 -23.425781 9.34375 -22.53125 C 9.25 -21.644531 8.753906 -21.15625 7.859375 -21.0625 C 7.484375 -21.0625 6.941406 -21.035156 6.234375 -20.984375 C 5.535156 -20.941406 5.023438 -20.921875 4.703125 -20.921875 C 4.609375 -20.921875 4.46875 -20.90625 4.28125 -20.875 C 4.09375 -20.851562 3.953125 -20.84375 3.859375 -20.84375 Z M 3.859375 -20.84375 "/></g></g></g><g fill="#ffffff" fill-opacity="1"><g transform="translate(399.801839, 204.426651)"><g><path d="M 11.234375 -22.1875 C 11.234375 -22.695312 11.28125 -23.070312 11.375 -23.3125 C 11.601562 -24.195312 12.164062 -24.59375 13.0625 -24.5 C 13.90625 -24.40625 14.375 -23.9375 14.46875 -23.09375 C 14.5625 -21.3125 14.609375 -20.003906 14.609375 -19.171875 C 14.554688 -14.296875 14.601562 -8.769531 14.75 -2.59375 C 14.789062 -1.9375 14.550781 -1.328125 14.03125 -0.765625 C 13.519531 -0.210938 12.914062 0.0625 12.21875 0.0625 C 11.5625 0.113281 11.019531 -0.234375 10.59375 -0.984375 C 10.039062 -2.015625 9.203125 -3.6875 8.078125 -6 C 6.953125 -8.320312 6.316406 -9.625 6.171875 -9.90625 C 5.609375 -10.976562 4.863281 -12.640625 3.9375 -14.890625 C 3.695312 -15.210938 3.578125 -15.375 3.578125 -15.375 C 3.535156 -15.375 3.515625 -15.28125 3.515625 -15.09375 C 3.515625 -14.582031 3.5 -13.859375 3.46875 -12.921875 C 3.445312 -11.984375 3.4375 -11.253906 3.4375 -10.734375 C 3.4375 -9.941406 3.457031 -8.585938 3.5 -6.671875 C 3.550781 -4.753906 3.578125 -3.394531 3.578125 -2.59375 C 3.578125 -2.125 3.554688 -1.796875 3.515625 -1.609375 C 3.328125 -0.816406 2.832031 -0.394531 2.03125 -0.34375 C 1.1875 -0.34375 0.648438 -0.742188 0.421875 -1.546875 C 0.367188 -1.679688 0.34375 -1.914062 0.34375 -2.25 C 0.394531 -4.351562 0.421875 -7.6875 0.421875 -12.25 C 0.421875 -16.8125 0.421875 -20.144531 0.421875 -22.25 L 0.421875 -22.75 C 0.554688 -23.726562 1.09375 -24.289062 2.03125 -24.4375 C 3.019531 -24.570312 3.703125 -24.195312 4.078125 -23.3125 L 6.171875 -18.046875 C 6.359375 -17.617188 7.070312 -15.988281 8.3125 -13.15625 C 9.550781 -10.332031 10.453125 -8.144531 11.015625 -6.59375 C 11.160156 -7.957031 11.242188 -9.539062 11.265625 -11.34375 C 11.285156 -13.144531 11.285156 -15.144531 11.265625 -17.34375 C 11.242188 -19.539062 11.234375 -21.15625 11.234375 -22.1875 Z M 11.234375 -22.1875 "/></g></g></g><g fill="#ffffff" fill-opacity="1"><g transform="translate(427.603793, 204.426651)"><g><path d="M 5.890625 -20.921875 C 5.328125 -19.660156 5.023438 -18.863281 4.984375 -18.53125 C 4.566406 -17.03125 5.054688 -15.929688 6.453125 -15.234375 C 6.546875 -15.179688 6.800781 -15.0625 7.21875 -14.875 C 7.644531 -14.695312 7.976562 -14.5625 8.21875 -14.46875 C 10.226562 -13.476562 11.328125 -11.882812 11.515625 -9.6875 C 11.835938 -6.78125 11.554688 -4.507812 10.671875 -2.875 C 10.203125 -1.84375 9.5 -1.070312 8.5625 -0.5625 C 7.625 -0.0507812 6.640625 0.15625 5.609375 0.0625 C 3.179688 -0.164062 1.640625 -1.453125 0.984375 -3.796875 C 0.742188 -4.773438 0.484375 -6.34375 0.203125 -8.5 C 0.0664062 -9.519531 0.515625 -10.195312 1.546875 -10.53125 C 2.203125 -10.757812 2.765625 -10.664062 3.234375 -10.25 C 3.703125 -9.832031 3.84375 -9.316406 3.65625 -8.703125 C 3.414062 -7.910156 3.601562 -6.484375 4.21875 -4.421875 C 4.5 -3.722656 5 -3.3125 5.71875 -3.1875 C 6.445312 -3.070312 7.046875 -3.320312 7.515625 -3.9375 C 8.023438 -4.632812 8.328125 -5.648438 8.421875 -6.984375 C 8.515625 -8.316406 8.398438 -9.425781 8.078125 -10.3125 C 7.835938 -10.875 7.34375 -11.320312 6.59375 -11.65625 C 6.363281 -11.75 6.003906 -11.910156 5.515625 -12.140625 C 5.023438 -12.378906 4.660156 -12.566406 4.421875 -12.703125 C 2.546875 -13.597656 1.609375 -15.117188 1.609375 -17.265625 C 1.566406 -19.003906 2.015625 -20.597656 2.953125 -22.046875 C 3.554688 -23.078125 4.359375 -23.6875 5.359375 -23.875 C 6.367188 -24.0625 7.34375 -23.800781 8.28125 -23.09375 C 9.6875 -22.0625 10.484375 -20.820312 10.671875 -19.375 C 10.765625 -19 10.765625 -18.625 10.671875 -18.25 C 10.523438 -17.269531 10.007812 -16.78125 9.125 -16.78125 C 8.144531 -16.6875 7.582031 -17.203125 7.4375 -18.328125 C 7.300781 -19.117188 7.207031 -19.5625 7.15625 -19.65625 Z M 5.890625 -20.921875 "/></g></g></g><g fill="#ffffff" fill-opacity="1"><g transform="translate(452.035829, 204.426651)"><g><path d="M 3.4375 -3.9375 C 3.4375 -3.84375 3.445312 -3.675781 3.46875 -3.4375 C 3.5 -3.207031 3.515625 -3.019531 3.515625 -2.875 C 3.648438 -1.988281 3.296875 -1.378906 2.453125 -1.046875 C 1.515625 -0.765625 0.859375 -1.070312 0.484375 -1.96875 C 0.253906 -2.53125 0.140625 -3.09375 0.140625 -3.65625 C 0.140625 -6.695312 0.1875 -11.257812 0.28125 -17.34375 C 0.28125 -17.851562 0.289062 -18.609375 0.3125 -19.609375 C 0.332031 -20.617188 0.34375 -21.359375 0.34375 -21.828125 C 0.34375 -22.160156 0.367188 -22.394531 0.421875 -22.53125 C 0.554688 -23.707031 1.140625 -24.25 2.171875 -24.15625 C 3.160156 -24.0625 3.65625 -23.472656 3.65625 -22.390625 C 3.5625 -19.023438 3.515625 -16.5 3.515625 -14.8125 C 3.460938 -14.53125 3.425781 -13.03125 3.40625 -10.3125 C 3.382812 -7.601562 3.394531 -5.476562 3.4375 -3.9375 Z M 3.4375 -3.9375 "/></g></g></g><g fill="#ffffff" fill-opacity="1"><g transform="translate(468.604676, 204.426651)"><g><path d="M 0.5625 -18.53125 C 1.070312 -20.96875 2.382812 -22.796875 4.5 -24.015625 C 5.476562 -24.523438 6.539062 -24.640625 7.6875 -24.359375 C 8.832031 -24.078125 9.6875 -23.445312 10.25 -22.46875 C 11.1875 -20.832031 11.796875 -19.003906 12.078125 -16.984375 C 12.679688 -12.867188 12.703125 -9.429688 12.140625 -6.671875 C 11.816406 -5.035156 11.140625 -3.488281 10.109375 -2.03125 C 8.796875 -0.164062 7.179688 0.460938 5.265625 -0.140625 C 3.859375 -0.515625 2.851562 -1.453125 2.25 -2.953125 C 0 -8.003906 -0.5625 -13.195312 0.5625 -18.53125 Z M 4.28125 -7.09375 C 4.84375 -4.613281 5.519531 -3.347656 6.3125 -3.296875 C 6.78125 -3.253906 7.175781 -3.429688 7.5 -3.828125 C 7.832031 -4.222656 8.113281 -4.804688 8.34375 -5.578125 C 8.582031 -6.347656 8.726562 -6.78125 8.78125 -6.875 C 9.707031 -11.320312 9.351562 -15.742188 7.71875 -20.140625 C 7.53125 -20.703125 7.222656 -21.03125 6.796875 -21.125 C 6.378906 -21.21875 5.960938 -21.078125 5.546875 -20.703125 C 4.660156 -19.910156 4.097656 -18.472656 3.859375 -16.390625 C 3.628906 -14.304688 3.582031 -12.550781 3.71875 -11.125 C 3.863281 -9.695312 4.050781 -8.351562 4.28125 -7.09375 Z M 4.28125 -7.09375 "/></g></g></g><g fill="#ffffff" fill-opacity="1"><g transform="translate(494.160018, 204.426651)"><g><path d="M 11.234375 -22.1875 C 11.234375 -22.695312 11.28125 -23.070312 11.375 -23.3125 C 11.601562 -24.195312 12.164062 -24.59375 13.0625 -24.5 C 13.90625 -24.40625 14.375 -23.9375 14.46875 -23.09375 C 14.5625 -21.3125 14.609375 -20.003906 14.609375 -19.171875 C 14.554688 -14.296875 14.601562 -8.769531 14.75 -2.59375 C 14.789062 -1.9375 14.550781 -1.328125 14.03125 -0.765625 C 13.519531 -0.210938 12.914062 0.0625 12.21875 0.0625 C 11.5625 0.113281 11.019531 -0.234375 10.59375 -0.984375 C 10.039062 -2.015625 9.203125 -3.6875 8.078125 -6 C 6.953125 -8.320312 6.316406 -9.625 6.171875 -9.90625 C 5.609375 -10.976562 4.863281 -12.640625 3.9375 -14.890625 C 3.695312 -15.210938 3.578125 -15.375 3.578125 -15.375 C 3.535156 -15.375 3.515625 -15.28125 3.515625 -15.09375 C 3.515625 -14.582031 3.5 -13.859375 3.46875 -12.921875 C 3.445312 -11.984375 3.4375 -11.253906 3.4375 -10.734375 C 3.4375 -9.941406 3.457031 -8.585938 3.5 -6.671875 C 3.550781 -4.753906 3.578125 -3.394531 3.578125 -2.59375 C 3.578125 -2.125 3.554688 -1.796875 3.515625 -1.609375 C 3.328125 -0.816406 2.832031 -0.394531 2.03125 -0.34375 C 1.1875 -0.34375 0.648438 -0.742188 0.421875 -1.546875 C 0.367188 -1.679688 0.34375 -1.914062 0.34375 -2.25 C 0.394531 -4.351562 0.421875 -7.6875 0.421875 -12.25 C 0.421875 -16.8125 0.421875 -20.144531 0.421875 -22.25 L 0.421875 -22.75 C 0.554688 -23.726562 1.09375 -24.289062 2.03125 -24.4375 C 3.019531 -24.570312 3.703125 -24.195312 4.078125 -23.3125 L 6.171875 -18.046875 C 6.359375 -17.617188 7.070312 -15.988281 8.3125 -13.15625 C 9.550781 -10.332031 10.453125 -8.144531 11.015625 -6.59375 C 11.160156 -7.957031 11.242188 -9.539062 11.265625 -11.34375 C 11.285156 -13.144531 11.285156 -15.144531 11.265625 -17.34375 C 11.242188 -19.539062 11.234375 -21.15625 11.234375 -22.1875 Z M 11.234375 -22.1875 "/></g></g></g></svg>