<svg xmlns="http://www.w3.org/2000/svg" xmlns:xlink="http://www.w3.org/1999/xlink" width="90" zoomAndPan="magnify" viewBox="0 0 67.5 37.5" height="50" preserveAspectRatio="xMidYMid meet" version="1.0"><defs><clipPath id="169065e988"><path d="M 0.199219 5 L 66.808594 5 L 66.808594 32 L 0.199219 32 Z M 0.199219 5 " clip-rule="nonzero"/></clipPath><clipPath id="e47abc1fbe"><path d="M 0.199219 4.574219 L 66.808594 4.574219 L 66.808594 32.699219 L 0.199219 32.699219 Z M 0.199219 4.574219 " clip-rule="nonzero"/></clipPath></defs><g clip-path="url(#169065e988)"><path fill="#a5769e" d="M 29.515625 31.960938 C 26.414062 31.960938 24.042969 31.929688 21.832031 31.867188 C 20.371094 31.824219 18.886719 31.800781 17.453125 31.777344 C 15.609375 31.746094 13.707031 31.714844 11.835938 31.648438 C 11.433594 31.632812 10.890625 31.617188 10.261719 31.601562 C 9.660156 31.589844 8.976562 31.570312 8.242188 31.546875 C 7.542969 31.523438 6.789062 31.496094 6.035156 31.460938 L 6.003906 31.460938 L 5.972656 31.464844 C 5.597656 31.503906 5.253906 31.523438 4.933594 31.523438 C 4.851562 31.523438 4.769531 31.523438 4.6875 31.519531 C 3.878906 31.492188 3.269531 31.390625 2.714844 31.183594 C 2.382812 31.058594 2.089844 30.890625 1.851562 30.6875 C 1.605469 30.480469 1.394531 30.203125 1.246094 29.878906 C 1.117188 29.59375 1.023438 29.261719 0.976562 28.902344 C 0.925781 28.527344 0.914062 28.160156 0.910156 27.882812 L 0.886719 25.851562 C 0.882812 25.292969 0.871094 24.738281 0.859375 24.183594 C 0.835938 23.21875 0.816406 22.214844 0.824219 21.234375 C 0.828125 19.992188 0.800781 18.734375 0.777344 17.515625 C 0.738281 15.585938 0.699219 13.589844 0.765625 11.628906 C 0.785156 11.113281 0.792969 10.609375 0.796875 10.230469 C 0.804688 9.710938 0.824219 9.25 0.859375 8.820312 C 0.90625 8.265625 0.980469 7.835938 1.09375 7.429688 C 1.152344 7.230469 1.226562 6.988281 1.339844 6.765625 L 1.347656 6.746094 C 1.378906 6.675781 1.425781 6.59375 1.472656 6.511719 L 1.511719 6.445312 L 1.542969 6.398438 C 1.601562 6.3125 1.660156 6.230469 1.71875 6.164062 L 1.730469 6.152344 C 1.867188 5.992188 2.097656 5.761719 2.417969 5.589844 C 2.710938 5.429688 3.097656 5.3125 3.539062 5.253906 C 3.8125 5.222656 4.105469 5.207031 4.429688 5.207031 C 4.957031 5.207031 5.496094 5.25 6 5.300781 L 6.054688 5.300781 C 6.3125 5.289062 6.570312 5.28125 6.824219 5.269531 C 11.308594 5.113281 15.871094 5.089844 20.285156 5.074219 L 20.722656 5.070312 C 21.558594 5.066406 22.390625 5.0625 23.226562 5.054688 C 24.398438 5.046875 25.609375 5.039062 26.800781 5.039062 C 27.464844 5.039062 28.070312 5.039062 28.648438 5.046875 C 29.40625 5.050781 30.164062 5.050781 30.925781 5.050781 C 32.160156 5.050781 33.394531 5.046875 34.628906 5.042969 C 35.863281 5.039062 37.097656 5.035156 38.335938 5.035156 C 41.058594 5.035156 43.152344 5.054688 45.128906 5.105469 C 46.609375 5.144531 48.113281 5.164062 49.570312 5.179688 C 51.234375 5.199219 52.960938 5.222656 54.652344 5.273438 C 55.070312 5.285156 55.648438 5.292969 56.3125 5.304688 C 57.984375 5.332031 60.269531 5.371094 62.339844 5.492188 L 62.375 5.492188 C 62.429688 5.488281 62.484375 5.488281 62.539062 5.488281 C 62.613281 5.488281 62.6875 5.492188 62.761719 5.496094 C 63.339844 5.527344 63.773438 5.597656 64.167969 5.722656 C 64.402344 5.796875 64.605469 5.886719 64.78125 6 C 64.96875 6.117188 65.140625 6.269531 65.277344 6.441406 C 65.523438 6.75 65.703125 7.152344 65.839844 7.710938 C 65.957031 8.207031 66.023438 8.703125 66.082031 9.171875 C 66.128906 9.621094 66.160156 10.105469 66.1875 10.742188 C 66.207031 11.242188 66.21875 11.75 66.230469 12.238281 L 66.234375 12.328125 C 66.242188 12.75 66.25 13.171875 66.257812 13.59375 C 66.269531 14.222656 66.28125 14.871094 66.300781 15.511719 C 66.359375 17.742188 66.34375 20.015625 66.328125 22.214844 L 66.328125 22.488281 C 66.324219 23.277344 66.304688 24.121094 66.269531 25.070312 C 66.242188 25.820312 66.210938 26.75 66.160156 27.648438 C 66.144531 27.890625 66.109375 28.398438 66.023438 29.054688 C 65.976562 29.363281 65.9375 29.628906 65.878906 29.902344 C 65.8125 30.1875 65.742188 30.464844 65.605469 30.742188 C 65.539062 30.871094 65.457031 30.988281 65.363281 31.089844 C 65.28125 31.175781 65.167969 31.253906 65.058594 31.304688 C 64.816406 31.410156 64.597656 31.429688 64.402344 31.445312 C 64.296875 31.449219 64.183594 31.453125 64.078125 31.453125 C 63.839844 31.453125 63.699219 31.4375 63.660156 31.433594 L 63.605469 31.425781 L 63.242188 31.457031 C 62.828125 31.496094 62.410156 31.523438 62.015625 31.546875 C 59.542969 31.695312 57.054688 31.757812 54.734375 31.808594 C 52.160156 31.855469 49.601562 31.882812 47.4375 31.898438 C 46.644531 31.90625 45.847656 31.914062 45.054688 31.921875 C 43.613281 31.9375 42.125 31.953125 40.660156 31.953125 C 40.148438 31.953125 39.636719 31.949219 39.125 31.945312 C 38.476562 31.941406 37.832031 31.941406 37.1875 31.941406 C 35.910156 31.941406 34.628906 31.945312 33.351562 31.949219 C 32.074219 31.953125 30.796875 31.960938 29.515625 31.960938 Z M 29.515625 31.960938 " fill-opacity="1" fill-rule="nonzero"/></g><g clip-path="url(#e47abc1fbe)"><path fill="#ffffff" d="M 66.691406 15.5 C 66.664062 14.441406 66.648438 13.378906 66.625 12.320312 C 66.613281 11.789062 66.601562 11.257812 66.578125 10.726562 C 66.558594 10.195312 66.527344 9.660156 66.46875 9.125 C 66.410156 8.625 66.339844 8.117188 66.21875 7.617188 C 66.097656 7.121094 65.917969 6.613281 65.582031 6.195312 C 65.417969 5.988281 65.214844 5.808594 64.992188 5.667969 C 64.769531 5.527344 64.53125 5.425781 64.285156 5.347656 C 63.792969 5.191406 63.285156 5.132812 62.78125 5.101562 C 62.644531 5.09375 62.503906 5.09375 62.363281 5.097656 C 59.445312 4.929688 56.117188 4.921875 54.664062 4.878906 C 51.492188 4.785156 48.3125 4.796875 45.136719 4.714844 C 39.644531 4.574219 34.148438 4.6875 28.652344 4.652344 C 26.007812 4.628906 23.363281 4.667969 20.722656 4.679688 C 16.082031 4.699219 11.445312 4.714844 6.8125 4.878906 C 6.554688 4.886719 6.296875 4.898438 6.039062 4.910156 C 5.21875 4.832031 4.335938 4.765625 3.488281 4.867188 C 3.039062 4.925781 2.597656 5.042969 2.234375 5.246094 C 1.867188 5.441406 1.601562 5.699219 1.429688 5.898438 C 1.335938 6.003906 1.261719 6.121094 1.179688 6.234375 C 1.113281 6.351562 1.039062 6.46875 0.988281 6.589844 C 0.867188 6.832031 0.789062 7.078125 0.714844 7.324219 C 0.578125 7.816406 0.511719 8.304688 0.46875 8.789062 C 0.425781 9.269531 0.410156 9.75 0.40625 10.226562 C 0.398438 10.691406 0.390625 11.152344 0.375 11.617188 C 0.261719 14.820312 0.4375 18.023438 0.433594 21.230469 C 0.417969 22.773438 0.476562 24.3125 0.496094 25.855469 L 0.519531 27.890625 C 0.523438 28.234375 0.539062 28.589844 0.585938 28.953125 C 0.636719 29.316406 0.730469 29.6875 0.890625 30.042969 C 1.054688 30.398438 1.292969 30.734375 1.597656 30.984375 C 1.894531 31.238281 2.234375 31.421875 2.582031 31.554688 C 3.273438 31.808594 3.984375 31.890625 4.675781 31.914062 C 5.128906 31.925781 5.574219 31.902344 6.015625 31.851562 C 6.773438 31.890625 7.523438 31.917969 8.230469 31.941406 C 9.730469 31.988281 11.039062 32.007812 11.820312 32.039062 C 15.148438 32.160156 18.484375 32.164062 21.820312 32.257812 C 27.585938 32.425781 33.351562 32.3125 39.121094 32.335938 C 41.894531 32.359375 44.667969 32.3125 47.441406 32.289062 C 49.875 32.273438 52.308594 32.246094 54.742188 32.199219 C 57.175781 32.148438 59.605469 32.082031 62.039062 31.9375 C 62.453125 31.914062 62.863281 31.886719 63.277344 31.847656 C 63.382812 31.839844 63.488281 31.828125 63.59375 31.820312 C 63.597656 31.820312 63.601562 31.820312 63.605469 31.820312 C 63.699219 31.832031 63.992188 31.859375 64.433594 31.835938 C 64.652344 31.816406 64.917969 31.792969 65.222656 31.660156 C 65.371094 31.59375 65.519531 31.488281 65.652344 31.355469 C 65.777344 31.222656 65.878906 31.070312 65.957031 30.917969 C 66.113281 30.605469 66.191406 30.292969 66.261719 29.988281 C 66.328125 29.683594 66.371094 29.386719 66.410156 29.105469 C 66.484375 28.542969 66.53125 28.039062 66.550781 27.667969 C 66.601562 26.804688 66.628906 25.945312 66.660156 25.085938 C 66.691406 24.226562 66.714844 23.351562 66.71875 22.488281 C 66.734375 20.15625 66.753906 17.828125 66.691406 15.5 Z M 65.78125 11.449219 C 65.703125 14.355469 65.820312 17.273438 65.761719 20.191406 C 65.714844 21.589844 65.742188 22.996094 65.695312 24.390625 L 65.585938 28.082031 C 65.566406 28.691406 65.542969 29.304688 65.472656 29.886719 C 65.4375 30.179688 65.382812 30.460938 65.285156 30.695312 C 65.1875 30.933594 65.039062 31.085938 64.800781 31.191406 C 64.648438 31.257812 64.472656 31.300781 64.289062 31.339844 C 64.003906 31.347656 63.578125 31.359375 63.046875 31.359375 C 62.230469 31.363281 61.171875 31.355469 60.046875 31.34375 C 57.796875 31.320312 55.273438 31.269531 53.828125 31.277344 C 50.425781 31.285156 47.023438 31.316406 43.617188 31.347656 C 39.023438 31.390625 34.429688 31.382812 29.832031 31.429688 C 25.652344 31.472656 21.46875 31.433594 17.289062 31.449219 C 13.433594 31.460938 9.578125 31.441406 5.726562 31.394531 C 5.597656 31.382812 5.445312 31.363281 5.277344 31.34375 C 4.832031 31.292969 4.261719 31.207031 3.699219 31.050781 C 3.417969 30.964844 3.140625 30.867188 2.890625 30.738281 C 2.640625 30.613281 2.425781 30.460938 2.257812 30.296875 C 1.921875 29.96875 1.785156 29.578125 1.710938 29.25 C 1.621094 28.871094 1.597656 28.441406 1.59375 27.988281 C 1.59375 27.539062 1.59375 27.050781 1.589844 26.582031 C 1.582031 25.632812 1.566406 24.683594 1.546875 23.738281 C 1.496094 21.179688 1.476562 18.621094 1.382812 16.066406 C 1.339844 14.902344 1.316406 13.738281 1.296875 12.578125 L 1.261719 10.832031 C 1.25 10.246094 1.226562 9.675781 1.246094 9.105469 C 1.261719 8.5625 1.304688 8.023438 1.425781 7.503906 C 1.550781 6.992188 1.746094 6.488281 2.109375 6.121094 C 2.464844 5.746094 2.976562 5.546875 3.503906 5.449219 C 3.765625 5.402344 4.035156 5.371094 4.304688 5.351562 C 4.3125 5.351562 4.324219 5.355469 4.332031 5.355469 C 4.5 5.371094 5.054688 5.386719 5.835938 5.402344 C 6.617188 5.421875 7.625 5.449219 8.699219 5.480469 C 9.773438 5.507812 10.910156 5.539062 11.953125 5.566406 C 12.992188 5.589844 13.9375 5.609375 14.628906 5.609375 C 17.871094 5.625 21.117188 5.609375 24.363281 5.589844 C 28.742188 5.5625 33.121094 5.570312 37.5 5.519531 C 41.484375 5.476562 45.472656 5.503906 49.457031 5.472656 C 53.234375 5.441406 57.011719 5.445312 60.789062 5.433594 C 61.105469 5.433594 61.421875 5.425781 61.738281 5.417969 C 61.761719 5.421875 61.785156 5.421875 61.808594 5.425781 C 62.582031 5.507812 63.414062 5.601562 64.058594 5.828125 C 64.378906 5.9375 64.640625 6.082031 64.828125 6.246094 C 65.023438 6.402344 65.144531 6.578125 65.222656 6.71875 C 65.386719 7.023438 65.496094 7.382812 65.566406 7.765625 C 65.644531 8.144531 65.6875 8.550781 65.726562 8.960938 L 65.75 9.269531 L 65.765625 9.574219 C 65.78125 9.773438 65.78125 9.984375 65.785156 10.191406 C 65.792969 10.609375 65.789062 11.027344 65.78125 11.449219 Z M 65.78125 11.449219 " fill-opacity="1" fill-rule="nonzero"/></g></svg>