<svg xmlns="http://www.w3.org/2000/svg" xmlns:xlink="http://www.w3.org/1999/xlink" width="90" zoomAndPan="magnify" viewBox="0 0 67.5 37.5" height="50" preserveAspectRatio="xMidYMid meet" version="1.0"><defs><clipPath id="19505c3c1f"><path d="M 7.382812 7.578125 L 59.929688 7.578125 L 59.929688 29.785156 L 7.382812 29.785156 Z M 7.382812 7.578125 " clip-rule="nonzero"/></clipPath></defs><g clip-path="url(#19505c3c1f)"><path fill="#6eab73" d="M 30.371094 29.0625 C 27.9375 29.0625 26.078125 29.039062 24.34375 28.988281 C 23.199219 28.957031 22.035156 28.9375 20.910156 28.917969 C 19.464844 28.894531 17.96875 28.871094 16.503906 28.816406 C 16.1875 28.804688 15.761719 28.792969 15.265625 28.78125 C 14.796875 28.769531 14.257812 28.757812 13.683594 28.738281 C 13.132812 28.71875 12.542969 28.699219 11.953125 28.671875 L 11.929688 28.667969 L 11.902344 28.671875 C 11.609375 28.703125 11.339844 28.71875 11.085938 28.71875 C 11.023438 28.71875 10.960938 28.71875 10.894531 28.71875 C 10.261719 28.695312 9.785156 28.613281 9.347656 28.453125 C 9.085938 28.355469 8.859375 28.222656 8.667969 28.0625 C 8.476562 27.902344 8.3125 27.683594 8.195312 27.429688 C 8.09375 27.203125 8.019531 26.945312 7.984375 26.664062 C 7.941406 26.371094 7.933594 26.082031 7.929688 25.863281 L 7.914062 24.269531 C 7.910156 23.832031 7.898438 23.398438 7.890625 22.960938 C 7.875 22.203125 7.855469 21.417969 7.863281 20.648438 C 7.867188 19.671875 7.847656 18.6875 7.828125 17.730469 C 7.796875 16.21875 7.765625 14.652344 7.820312 13.113281 C 7.832031 12.710938 7.839844 12.3125 7.84375 12.015625 C 7.847656 11.605469 7.863281 11.246094 7.890625 10.910156 C 7.929688 10.472656 7.984375 10.136719 8.074219 9.820312 C 8.121094 9.660156 8.179688 9.472656 8.265625 9.296875 L 8.273438 9.285156 C 8.296875 9.226562 8.335938 9.164062 8.371094 9.097656 L 8.402344 9.046875 L 8.429688 9.007812 C 8.476562 8.941406 8.519531 8.878906 8.566406 8.824219 L 8.574219 8.816406 C 8.679688 8.691406 8.863281 8.511719 9.113281 8.375 C 9.34375 8.25 9.648438 8.160156 9.996094 8.113281 C 10.207031 8.085938 10.4375 8.074219 10.691406 8.074219 C 11.105469 8.074219 11.53125 8.109375 11.925781 8.148438 L 11.96875 8.148438 C 12.167969 8.140625 12.371094 8.132812 12.570312 8.125 C 16.089844 8 19.667969 7.984375 23.128906 7.96875 L 23.472656 7.96875 C 24.128906 7.964844 24.78125 7.960938 25.4375 7.957031 C 26.355469 7.949219 27.308594 7.941406 28.242188 7.941406 C 28.761719 7.941406 29.234375 7.945312 29.691406 7.949219 C 30.285156 7.953125 30.882812 7.953125 31.476562 7.953125 C 32.445312 7.953125 33.414062 7.949219 34.382812 7.945312 C 35.351562 7.941406 36.320312 7.9375 37.289062 7.9375 C 39.425781 7.9375 41.070312 7.957031 42.617188 7.996094 C 43.78125 8.027344 44.960938 8.039062 46.101562 8.054688 C 47.410156 8.070312 48.761719 8.085938 50.089844 8.125 C 50.417969 8.136719 50.871094 8.144531 51.394531 8.152344 C 52.703125 8.171875 54.496094 8.203125 56.121094 8.296875 L 56.148438 8.296875 C 56.191406 8.296875 56.234375 8.296875 56.277344 8.296875 C 56.335938 8.296875 56.394531 8.296875 56.449219 8.300781 C 56.902344 8.324219 57.246094 8.378906 57.554688 8.476562 C 57.738281 8.539062 57.898438 8.609375 58.039062 8.699219 C 58.183594 8.789062 58.316406 8.910156 58.425781 9.042969 C 58.617188 9.285156 58.757812 9.601562 58.867188 10.039062 C 58.960938 10.425781 59.011719 10.820312 59.054688 11.1875 C 59.09375 11.535156 59.117188 11.917969 59.136719 12.417969 C 59.15625 12.808594 59.164062 13.207031 59.171875 13.589844 L 59.175781 13.660156 C 59.183594 13.992188 59.1875 14.324219 59.195312 14.65625 C 59.203125 15.148438 59.214844 15.65625 59.226562 16.15625 C 59.273438 17.90625 59.261719 19.691406 59.25 21.414062 L 59.25 21.628906 C 59.246094 22.25 59.230469 22.914062 59.203125 23.65625 C 59.183594 24.246094 59.15625 24.976562 59.117188 25.679688 C 59.105469 25.871094 59.078125 26.265625 59.007812 26.78125 C 58.976562 27.027344 58.941406 27.234375 58.894531 27.449219 C 58.84375 27.671875 58.789062 27.890625 58.683594 28.105469 C 58.632812 28.207031 58.566406 28.300781 58.492188 28.378906 C 58.425781 28.445312 58.339844 28.507812 58.253906 28.546875 C 58.0625 28.628906 57.890625 28.644531 57.738281 28.65625 C 57.65625 28.660156 57.566406 28.664062 57.484375 28.664062 C 57.296875 28.664062 57.1875 28.652344 57.15625 28.648438 L 57.113281 28.640625 L 56.828125 28.667969 C 56.503906 28.699219 56.175781 28.71875 55.867188 28.738281 C 53.929688 28.855469 51.976562 28.902344 50.152344 28.941406 C 48.136719 28.980469 46.128906 29 44.429688 29.011719 C 43.808594 29.019531 43.183594 29.023438 42.5625 29.03125 C 41.429688 29.042969 40.261719 29.054688 39.113281 29.054688 C 38.710938 29.054688 38.308594 29.054688 37.910156 29.050781 C 37.402344 29.046875 36.894531 29.046875 36.390625 29.046875 C 35.386719 29.046875 34.382812 29.050781 33.378906 29.054688 C 32.378906 29.058594 31.375 29.0625 30.371094 29.0625 Z M 30.371094 29.0625 " fill-opacity="1" fill-rule="nonzero"/><path fill="#ffffff" d="M 59.535156 16.148438 C 59.511719 15.316406 59.5 14.484375 59.484375 13.652344 C 59.472656 13.238281 59.464844 12.820312 59.445312 12.40625 C 59.429688 11.988281 59.40625 11.570312 59.359375 11.148438 C 59.3125 10.753906 59.261719 10.359375 59.164062 9.964844 C 59.070312 9.574219 58.925781 9.179688 58.664062 8.851562 C 58.535156 8.6875 58.375 8.546875 58.203125 8.4375 C 58.027344 8.328125 57.839844 8.246094 57.644531 8.183594 C 57.261719 8.0625 56.863281 8.015625 56.46875 7.992188 C 56.359375 7.988281 56.25 7.988281 56.140625 7.992188 C 53.851562 7.859375 51.238281 7.851562 50.101562 7.820312 C 47.613281 7.746094 45.117188 7.753906 42.625 7.6875 C 38.316406 7.578125 34.003906 7.664062 29.691406 7.640625 C 27.617188 7.621094 25.546875 7.652344 23.472656 7.660156 C 19.835938 7.675781 16.195312 7.6875 12.558594 7.816406 C 12.359375 7.824219 12.15625 7.832031 11.953125 7.839844 C 11.3125 7.78125 10.621094 7.726562 9.953125 7.808594 C 9.601562 7.855469 9.253906 7.945312 8.96875 8.105469 C 8.683594 8.257812 8.472656 8.460938 8.339844 8.617188 C 8.265625 8.699219 8.207031 8.792969 8.144531 8.882812 C 8.089844 8.972656 8.03125 9.066406 7.992188 9.160156 C 7.898438 9.351562 7.835938 9.542969 7.777344 9.738281 C 7.671875 10.121094 7.617188 10.503906 7.585938 10.882812 C 7.550781 11.261719 7.539062 11.636719 7.535156 12.011719 C 7.53125 12.378906 7.523438 12.738281 7.511719 13.101562 C 7.421875 15.617188 7.5625 18.128906 7.558594 20.644531 C 7.546875 21.855469 7.59375 23.0625 7.605469 24.273438 L 7.625 25.867188 C 7.628906 26.140625 7.640625 26.417969 7.679688 26.703125 C 7.714844 26.988281 7.789062 27.28125 7.914062 27.558594 C 8.042969 27.835938 8.230469 28.097656 8.46875 28.296875 C 8.703125 28.496094 8.972656 28.640625 9.242188 28.742188 C 9.785156 28.945312 10.34375 29.007812 10.886719 29.023438 C 11.238281 29.035156 11.589844 29.015625 11.9375 28.976562 C 12.53125 29.007812 13.121094 29.027344 13.675781 29.046875 C 14.851562 29.082031 15.875 29.101562 16.492188 29.125 C 19.101562 29.21875 21.71875 29.222656 24.332031 29.296875 C 28.855469 29.425781 33.382812 29.335938 37.90625 29.359375 C 40.082031 29.375 42.257812 29.335938 44.433594 29.320312 C 46.34375 29.304688 48.25 29.285156 50.160156 29.25 C 52.066406 29.210938 53.976562 29.160156 55.886719 29.042969 C 56.207031 29.027344 56.53125 29.003906 56.855469 28.972656 C 56.941406 28.964844 57.023438 28.960938 57.105469 28.953125 C 57.109375 28.953125 57.109375 28.953125 57.113281 28.953125 C 57.1875 28.960938 57.417969 28.980469 57.761719 28.964844 C 57.933594 28.949219 58.144531 28.929688 58.382812 28.828125 C 58.5 28.773438 58.617188 28.691406 58.71875 28.589844 C 58.816406 28.484375 58.898438 28.363281 58.957031 28.242188 C 59.078125 28 59.140625 27.753906 59.195312 27.515625 C 59.25 27.277344 59.285156 27.042969 59.316406 26.824219 C 59.371094 26.378906 59.40625 25.984375 59.425781 25.695312 C 59.460938 25.015625 59.488281 24.34375 59.511719 23.667969 C 59.535156 22.996094 59.550781 22.308594 59.554688 21.632812 C 59.570312 19.804688 59.585938 17.976562 59.535156 16.148438 Z M 58.820312 12.96875 C 58.757812 15.25 58.851562 17.542969 58.804688 19.828125 C 58.769531 20.929688 58.789062 22.027344 58.753906 23.125 L 58.667969 26.019531 C 58.652344 26.496094 58.632812 26.976562 58.578125 27.4375 C 58.550781 27.664062 58.507812 27.886719 58.429688 28.070312 C 58.355469 28.253906 58.238281 28.375 58.054688 28.457031 C 57.933594 28.511719 57.792969 28.546875 57.648438 28.574219 C 57.425781 28.582031 57.089844 28.589844 56.675781 28.589844 C 56.035156 28.59375 55.203125 28.585938 54.324219 28.578125 C 52.558594 28.558594 50.578125 28.519531 49.445312 28.527344 C 46.773438 28.535156 44.105469 28.554688 41.433594 28.582031 C 37.828125 28.613281 34.226562 28.609375 30.621094 28.644531 C 27.34375 28.679688 24.058594 28.648438 20.777344 28.660156 C 17.757812 28.671875 14.730469 28.652344 11.710938 28.617188 C 11.609375 28.609375 11.488281 28.59375 11.355469 28.578125 C 11.007812 28.539062 10.5625 28.472656 10.117188 28.347656 C 9.898438 28.28125 9.679688 28.203125 9.484375 28.105469 C 9.289062 28.003906 9.121094 27.886719 8.988281 27.757812 C 8.726562 27.5 8.617188 27.191406 8.558594 26.9375 C 8.488281 26.640625 8.46875 26.300781 8.46875 25.945312 C 8.46875 25.59375 8.46875 25.210938 8.464844 24.84375 C 8.457031 24.097656 8.445312 23.355469 8.429688 22.613281 C 8.390625 20.605469 8.375 18.597656 8.300781 16.59375 C 8.269531 15.679688 8.25 14.769531 8.234375 13.855469 L 8.207031 12.488281 C 8.199219 12.027344 8.179688 11.582031 8.195312 11.132812 C 8.207031 10.707031 8.242188 10.285156 8.335938 9.878906 C 8.433594 9.476562 8.585938 9.078125 8.871094 8.792969 C 9.152344 8.5 9.550781 8.339844 9.96875 8.265625 C 10.171875 8.226562 10.382812 8.203125 10.59375 8.1875 C 10.601562 8.191406 10.609375 8.191406 10.613281 8.191406 C 10.746094 8.203125 11.183594 8.214844 11.796875 8.226562 C 12.410156 8.242188 13.199219 8.265625 14.039062 8.289062 C 14.882812 8.3125 15.777344 8.335938 16.59375 8.355469 C 17.410156 8.375 18.152344 8.390625 18.691406 8.390625 C 21.238281 8.402344 23.78125 8.390625 26.328125 8.375 C 29.765625 8.351562 33.199219 8.359375 36.636719 8.320312 C 39.761719 8.285156 42.890625 8.308594 46.015625 8.28125 C 48.976562 8.257812 51.941406 8.261719 54.90625 8.253906 C 55.152344 8.253906 55.402344 8.246094 55.648438 8.238281 C 55.667969 8.242188 55.683594 8.242188 55.703125 8.246094 C 56.308594 8.3125 56.964844 8.382812 57.46875 8.5625 C 57.71875 8.648438 57.925781 8.761719 58.074219 8.890625 C 58.222656 9.015625 58.320312 9.152344 58.382812 9.261719 C 58.511719 9.5 58.59375 9.78125 58.652344 10.082031 C 58.714844 10.378906 58.75 10.699219 58.777344 11.019531 L 58.796875 11.261719 L 58.808594 11.5 C 58.820312 11.65625 58.820312 11.824219 58.824219 11.984375 C 58.828125 12.3125 58.828125 12.640625 58.820312 12.96875 Z M 58.820312 12.96875 " fill-opacity="1" fill-rule="nonzero"/></g></svg>