<?xml version="1.0" encoding="UTF-8" standalone="no"?>
<!-- Created with Inkscape (http://www.inkscape.org/) -->

<svg
   width="297mm"
   height="210mm"
   viewBox="0 0 297 210"
   version="1.1"
   id="svg1"
   xml:space="preserve"
   sodipodi:docname="mockup.svg"
   inkscape:version="1.4 (e7c3feb100, 2024-10-09)"
   inkscape:export-filename="mockup.png"
   inkscape:export-xdpi="96"
   inkscape:export-ydpi="96"
   xmlns:inkscape="http://www.inkscape.org/namespaces/inkscape"
   xmlns:sodipodi="http://sodipodi.sourceforge.net/DTD/sodipodi-0.dtd"
   xmlns:xlink="http://www.w3.org/1999/xlink"
   xmlns="http://www.w3.org/2000/svg"
   xmlns:svg="http://www.w3.org/2000/svg"><sodipodi:namedview
     id="namedview1"
     pagecolor="#250722"
     bordercolor="#eeeeee"
     borderopacity="1"
     inkscape:showpageshadow="0"
     inkscape:pageopacity="0"
     inkscape:pagecheckerboard="0"
     inkscape:deskcolor="#d1d1d1"
     inkscape:document-units="mm"
     inkscape:zoom="5.6568542"
     inkscape:cx="644.70461"
     inkscape:cy="395.27269"
     inkscape:window-width="1920"
     inkscape:window-height="1011"
     inkscape:window-x="0"
     inkscape:window-y="32"
     inkscape:window-maximized="1"
     inkscape:current-layer="layer1"
     showgrid="false" /><defs
     id="defs1"><linearGradient
       id="linearGradient40"
       inkscape:collect="always"><stop
         style="stop-color:#fb9a3f;stop-opacity:1;"
         offset="0"
         id="stop40" /><stop
         style="stop-color:#fb603f;stop-opacity:1;"
         offset="1"
         id="stop41" /></linearGradient><linearGradient
       id="linearGradient38"
       inkscape:collect="always"><stop
         style="stop-color:#fec93a;stop-opacity:1;"
         offset="0"
         id="stop38" /><stop
         style="stop-color:#fb9a3f;stop-opacity:1"
         offset="1"
         id="stop39" /></linearGradient><linearGradient
       id="linearGradient36"
       inkscape:collect="always"><stop
         style="stop-color:#ffe65f;stop-opacity:1;"
         offset="0"
         id="stop36" /><stop
         style="stop-color:#fec93a;stop-opacity:1"
         offset="1"
         id="stop37" /></linearGradient><linearGradient
       id="linearGradient11"
       inkscape:collect="always"><stop
         style="stop-color:#ffffff;stop-opacity:1;"
         offset="0"
         id="stop10" /><stop
         style="stop-color:#4fd0ff;stop-opacity:1;"
         offset="0.99982584"
         id="stop11" /></linearGradient><linearGradient
       id="linearGradient7"
       inkscape:collect="always"><stop
         style="stop-color:#2c7058;stop-opacity:1"
         offset="0"
         id="stop6" /><stop
         style="stop-color:#ffe65f;stop-opacity:0;"
         offset="1"
         id="stop7" /></linearGradient><linearGradient
       id="linearGradient5"
       inkscape:collect="always"><stop
         style="stop-color:#ff5890;stop-opacity:1;"
         offset="0"
         id="stop4" /><stop
         style="stop-color:#fa9335;stop-opacity:0;"
         offset="1"
         id="stop5" /></linearGradient><linearGradient
       id="linearGradient3"
       inkscape:collect="always"><stop
         style="stop-color:#717eef;stop-opacity:1"
         offset="0"
         id="stop2" /><stop
         style="stop-color:#fa9335;stop-opacity:0;"
         offset="1"
         id="stop3" /></linearGradient><linearGradient
       id="linearGradient34"
       inkscape:collect="always"><stop
         style="stop-color:#4fd0ff;stop-opacity:0;"
         offset="0.92478186"
         id="stop34" /><stop
         style="stop-color:#ffffff;stop-opacity:0.61616808;"
         offset="1"
         id="stop35" /></linearGradient><linearGradient
       id="linearGradient33"
       inkscape:collect="always"><stop
         style="stop-color:#fec93a;stop-opacity:1"
         offset="0"
         id="stop32" /><stop
         style="stop-color:#367559;stop-opacity:1"
         offset="1"
         id="stop33" /></linearGradient><linearGradient
       id="linearGradient30"
       inkscape:collect="always"><stop
         style="stop-color:#fec93a;stop-opacity:1"
         offset="0"
         id="stop30" /><stop
         style="stop-color:#687bfe;stop-opacity:1"
         offset="1"
         id="stop31" /></linearGradient><linearGradient
       id="swatch26"
       inkscape:swatch="solid"><stop
         style="stop-color:#ffffff;stop-opacity:1;"
         offset="0"
         id="stop26" /></linearGradient><linearGradient
       id="linearGradient24"
       inkscape:collect="always"><stop
         style="stop-color:#2a6e58;stop-opacity:1;"
         offset="0"
         id="stop24" /><stop
         style="stop-color:#2a6e58;stop-opacity:0;"
         offset="1"
         id="stop25" /></linearGradient><linearGradient
       id="swatch22"
       inkscape:swatch="solid"><stop
         style="stop-color:#fdc350;stop-opacity:1;"
         offset="0"
         id="stop22" /></linearGradient><linearGradient
       id="linearGradient20"
       inkscape:collect="always"><stop
         style="stop-color:#ff5890;stop-opacity:1;"
         offset="0"
         id="stop20" /><stop
         style="stop-color:#ff5890;stop-opacity:0;"
         offset="1"
         id="stop21" /></linearGradient><linearGradient
       id="linearGradient18"
       inkscape:collect="always"><stop
         style="stop-color:#6779fb;stop-opacity:1;"
         offset="0"
         id="stop18" /><stop
         style="stop-color:#6779fb;stop-opacity:0;"
         offset="1"
         id="stop19" /></linearGradient><linearGradient
       id="swatch17"
       inkscape:swatch="solid"><stop
         style="stop-color:#ffffff;stop-opacity:1;"
         offset="0"
         id="stop17" /></linearGradient><linearGradient
       id="swatch15"
       inkscape:swatch="solid"><stop
         style="stop-color:#ffffff;stop-opacity:1;"
         offset="0"
         id="stop15" /></linearGradient><linearGradient
       id="swatch14"
       inkscape:swatch="solid"><stop
         style="stop-color:#0cff68;stop-opacity:0.36798155;"
         offset="0"
         id="stop14" /></linearGradient><linearGradient
       inkscape:collect="always"
       xlink:href="#swatch14"
       id="linearGradient15"
       x1="149.30406"
       y1="96.795166"
       x2="151.31833"
       y2="96.795166"
       gradientUnits="userSpaceOnUse"
       gradientTransform="translate(0.19083044,0.04770761)" /><linearGradient
       inkscape:collect="always"
       xlink:href="#swatch14"
       id="linearGradient16"
       x1="145.50246"
       y1="99.952293"
       x2="149.26891"
       y2="99.952293"
       gradientUnits="userSpaceOnUse"
       gradientTransform="translate(0.19083044,0.04770761)" /><linearGradient
       inkscape:collect="always"
       xlink:href="#swatch14"
       id="linearGradient17"
       x1="155.42641"
       y1="112.65724"
       x2="165.04939"
       y2="112.65724"
       gradientUnits="userSpaceOnUse" /><linearGradient
       inkscape:collect="always"
       xlink:href="#linearGradient18"
       id="linearGradient19"
       x1="159.50609"
       y1="105.6582"
       x2="161.38158"
       y2="108.52065"
       gradientUnits="userSpaceOnUse"
       gradientTransform="matrix(1.5522003,0,0,1.5522003,-90.641741,-59.731709)" /><linearGradient
       inkscape:collect="always"
       xlink:href="#linearGradient20"
       id="linearGradient21"
       x1="149.05812"
       y1="112.48038"
       x2="154.27315"
       y2="106.42152"
       gradientUnits="userSpaceOnUse"
       gradientTransform="translate(-0.97955971,-3.7522431)" /><linearGradient
       inkscape:collect="always"
       xlink:href="#swatch14"
       id="linearGradient22"
       x1="161.38605"
       y1="98.859833"
       x2="162.27145"
       y2="98.859833"
       gradientUnits="userSpaceOnUse" /><linearGradient
       inkscape:collect="always"
       xlink:href="#linearGradient20"
       id="linearGradient23"
       gradientUnits="userSpaceOnUse"
       gradientTransform="matrix(0.45039666,0,0,0.45039666,-209.00563,81.099478)"
       x1="149.05812"
       y1="112.48038"
       x2="154.27315"
       y2="106.42152" /><linearGradient
       inkscape:collect="always"
       xlink:href="#linearGradient24"
       id="linearGradient25"
       x1="155.87157"
       y1="102.57108"
       x2="155.99281"
       y2="95.821861"
       gradientUnits="userSpaceOnUse" /><linearGradient
       inkscape:collect="always"
       xlink:href="#swatch14"
       id="linearGradient26"
       x1="152.91109"
       y1="114.5562"
       x2="154.48582"
       y2="114.5562"
       gradientUnits="userSpaceOnUse" /><linearGradient
       inkscape:collect="always"
       xlink:href="#linearGradient30"
       id="linearGradient31"
       x1="160.46852"
       y1="109.20413"
       x2="159.94701"
       y2="103.25892"
       gradientUnits="userSpaceOnUse"
       gradientTransform="matrix(-0.63836638,1.9763852,-1.1863189,-0.38317737,381.34346,-165.15312)" /><linearGradient
       inkscape:collect="always"
       xlink:href="#linearGradient33"
       id="linearGradient32"
       gradientUnits="userSpaceOnUse"
       gradientTransform="matrix(-1.1092385,0.46051642,0.28029163,0.65662837,310.62485,-38.005081)"
       x1="160.46852"
       y1="109.20413"
       x2="159.94701"
       y2="103.25892" /><radialGradient
       inkscape:collect="always"
       xlink:href="#linearGradient34"
       id="radialGradient35"
       cx="155.55148"
       cy="105.85181"
       fx="155.55148"
       fy="105.85181"
       r="12.463082"
       gradientTransform="matrix(1,0,0,0.99817169,0,0.19352971)"
       gradientUnits="userSpaceOnUse" /><linearGradient
       inkscape:collect="always"
       xlink:href="#linearGradient5"
       id="linearGradient1"
       gradientUnits="userSpaceOnUse"
       gradientTransform="translate(-0.36379647,-2.9165645)"
       x1="173.11121"
       y1="102.3586"
       x2="173.11121"
       y2="120.13558" /><linearGradient
       inkscape:collect="always"
       xlink:href="#linearGradient3"
       id="linearGradient2"
       gradientUnits="userSpaceOnUse"
       gradientTransform="translate(2.2444036,-2.9165645)"
       x1="173.11121"
       y1="102.3586"
       x2="173.11121"
       y2="120.13558" /><linearGradient
       inkscape:collect="always"
       xlink:href="#linearGradient7"
       id="linearGradient6"
       gradientUnits="userSpaceOnUse"
       gradientTransform="translate(4.8526037,-2.9165645)"
       x1="173.11121"
       y1="102.3586"
       x2="173.11121"
       y2="120.13558" /><linearGradient
       inkscape:collect="always"
       xlink:href="#linearGradient11"
       id="linearGradient9"
       x1="183.28633"
       y1="96.234993"
       x2="183.28633"
       y2="102.73295"
       gradientUnits="userSpaceOnUse"
       gradientTransform="translate(-1.2401602e-5,-213.44991)" /><linearGradient
       inkscape:collect="always"
       xlink:href="#linearGradient36"
       id="linearGradient37"
       x1="185.89453"
       y1="97.421364"
       x2="185.89453"
       y2="102.146"
       gradientUnits="userSpaceOnUse" /><linearGradient
       inkscape:collect="always"
       xlink:href="#linearGradient38"
       id="linearGradient39"
       x1="185.89453"
       y1="104.28976"
       x2="185.89453"
       y2="109.80537"
       gradientUnits="userSpaceOnUse" /><linearGradient
       inkscape:collect="always"
       xlink:href="#linearGradient40"
       id="linearGradient41"
       x1="185.89453"
       y1="111.0333"
       x2="185.89453"
       y2="116.81949"
       gradientUnits="userSpaceOnUse" /><clipPath
       clipPathUnits="userSpaceOnUse"
       id="clipPath41"><path
         id="path42"
         style="fill:#800080;stroke:none;stroke-width:0.41176;stroke-linecap:round;stroke-linejoin:round"
         d="m 167.99736,105.83128 c -0.18028,3.42487 -1.59801,6.74244 -3.84555,8.98997 -2.24753,2.24753 -5.04064,3.7416 -8.5742,3.42977 -3.41633,-0.30148 -6.53456,-1.07829 -8.78209,-3.32582 -2.24753,-2.24753 -3.23689,-5.6878 -3.63767,-9.09392 -0.41577,-3.53357 1.0783,-6.534568 3.32584,-8.782103 2.24753,-2.247532 5.66431,-3.637661 9.09392,-3.637661 3.42962,3e-6 6.43062,1.598017 8.67815,3.845552 2.24754,2.247533 3.94949,4.624872 3.7416,8.574212 z"
         sodipodi:nodetypes="sssssssss" /></clipPath></defs><g
     inkscape:label="Layer 1"
     inkscape:groupmode="layer"
     id="layer1"><rect
       style="font-variation-settings:normal;opacity:1;vector-effect:none;fill:none;fill-opacity:1;stroke:none;stroke-width:0.499719;stroke-linecap:round;stroke-linejoin:round;stroke-miterlimit:4;stroke-dasharray:none;stroke-dashoffset:0;stroke-opacity:1;-inkscape-stroke:none"
       id="rect23"
       width="21.003498"
       height="20.979923"
       x="172.85353"
       y="96.234993"
       inkscape:export-filename="palettep.png"
       inkscape:export-xdpi="1238.3461"
       inkscape:export-ydpi="1238.3461" /><path
       id="path1"
       style="fill:#4fd0ff;stroke:none;stroke-width:0.411761;stroke-linecap:round;stroke-linejoin:round"
       d="m 167.99736,105.83128 c -0.18028,3.42487 -1.59801,6.74244 -3.84555,8.98997 -2.24753,2.24753 -5.04064,3.7416 -8.5742,3.42977 -3.41633,-0.30148 -6.53456,-1.07829 -8.78209,-3.32582 -2.24753,-2.24753 -3.23689,-5.6878 -3.63767,-9.09392 -0.41577,-3.53357 1.0783,-6.534567 3.32584,-8.782102 2.24753,-2.247533 5.66431,-3.637663 9.09392,-3.637661 3.42962,10e-7 6.43062,1.598017 8.67815,3.845552 2.24754,2.247531 3.94949,4.624871 3.7416,8.574211 z"
       sodipodi:nodetypes="sssssssss" /><path
       id="path33"
       style="fill:url(#radialGradient35);stroke:none;stroke-width:0.411761;stroke-linecap:round;stroke-linejoin:round"
       d="m 167.99736,105.83128 c -0.18028,3.42487 -1.59801,6.74244 -3.84555,8.98997 -2.24753,2.24753 -5.04064,3.7416 -8.5742,3.42977 -3.41633,-0.30148 -6.53456,-1.07829 -8.78209,-3.32582 -2.24753,-2.24753 -3.23689,-5.6878 -3.63767,-9.09392 -0.41577,-3.53357 1.0783,-6.534567 3.32584,-8.782102 2.24753,-2.247533 5.66431,-3.637663 9.09392,-3.637661 3.42962,10e-7 6.43062,1.598017 8.67815,3.845552 2.24754,2.247531 3.94949,4.624871 3.7416,8.574211 z"
       sodipodi:nodetypes="sssssssss" /><circle
       style="fill:#fec93a;fill-opacity:1;stroke:none;stroke-width:1.42727;stroke-linecap:round;stroke-linejoin:round"
       id="circle4"
       cx="155.53125"
       cy="105.72188"
       r="10.303124" /><path
       style="opacity:1;fill:url(#linearGradient31);fill-opacity:1;stroke-width:0.804553;stroke-linecap:round;stroke-linejoin:round"
       d="m 148.77361,106.6613 8.68091,4.85274 -8.61791,1.08642 z"
       id="path30" /><path
       id="path2"
       style="fill:#ffe65f;fill-opacity:1;stroke:none;stroke-width:0.327219;stroke-linecap:round;stroke-linejoin:round"
       d="m 158.68846,103.74196 c 2.09321,-0.14457 5.46298,1.31639 6.26368,-0.62302 1.00303,-2.42947 -2.73267,-4.777137 -5.01053,-6.088535 -2.10788,-1.213538 -4.94485,-2.090313 -7.20059,-1.180671 -3.22818,1.301782 -7.86951,5.284366 -6.24995,8.365416 1.89318,3.60158 8.1382,-0.19284 12.19739,-0.47319 z"
       sodipodi:nodetypes="aaaaaa" /><path
       style="opacity:1;mix-blend-mode:normal;fill:url(#linearGradient32);fill-opacity:1;stroke-width:0.462988;stroke-linecap:round;stroke-linejoin:round"
       d="m 165.27903,107.75944 -3.23389,-4.70428 -0.1981,4.96006 z"
       id="path31" /><path
       id="path3"
       style="fill:url(#linearGradient25);fill-opacity:1;stroke:none;stroke-width:0.274744;stroke-linecap:round;stroke-linejoin:round"
       d="m 158.04624,100.98571 c 1.43299,0.10819 3.60372,2.32276 4.19096,1.01115 1.32573,-2.961042 -4.77401,-5.837859 -8.00432,-5.537054 -2.47763,0.230717 -6.30599,3.05446 -5.24959,5.307444 1.28727,2.74538 6.03936,-1.00984 9.06295,-0.78154 z"
       sodipodi:nodetypes="aaaaa" /><circle
       style="fill:url(#linearGradient21);fill-opacity:1;stroke:none;stroke-width:0.499999;stroke-linecap:round;stroke-linejoin:round"
       id="path4"
       cx="151.02002"
       cy="106.72442"
       r="3.609375" /><path
       id="path10"
       style="mix-blend-mode:difference;fill:url(#linearGradient17);fill-opacity:1;stroke:none;stroke-width:0.628003;stroke-linecap:round;stroke-linejoin:round;font-variation-settings:normal;opacity:1;vector-effect:none;stroke-miterlimit:4;stroke-dasharray:none;stroke-dashoffset:0;stroke-opacity:1;-inkscape-stroke:none;stop-color:#000000;stop-opacity:1"
       d="m 165.02892,102.21775 c 1.53324,-1.18362 -1.05513,-4.14688 -2.72163,-5.134092 -0.66119,-0.391685 -2.11904,-0.713902 -2.30529,0.03169 -0.22248,0.890635 1.83407,0.615505 2.41246,1.328379 0.41797,0.515146 0.22684,1.34222 0.58011,1.903713 0.49054,0.77967 1.30519,2.4332 2.03435,1.87031 z"
       sodipodi:nodetypes="aaaaaa" /><path
       id="path8"
       style="fill:#ffffff;fill-opacity:1;stroke:none;stroke-width:0.505405;stroke-linecap:round;stroke-linejoin:round"
       d="m 165.45829,101.8838 c 1.53324,-1.18362 -1.05513,-4.146883 -2.72163,-5.134095 -0.66119,-0.391685 -2.11904,-0.713902 -2.30529,0.03169 -0.22248,0.890635 1.83407,0.615505 2.41246,1.328379 0.41797,0.515146 0.22684,1.34222 0.58011,1.903716 0.49054,0.77967 1.30519,2.4332 2.03435,1.87031 z"
       sodipodi:nodetypes="aaaaaa" /><path
       id="path11"
       style="mix-blend-mode:difference;fill:url(#linearGradient15);stroke:none;stroke-width:0.212631;stroke-linecap:round;stroke-linejoin:round"
       d="m 149.87551,97.524755 c 0.3501,0.08262 0.59532,-0.454074 0.90848,-0.658584 0.23065,-0.150627 0.81605,-0.16208 0.71316,-0.417625 -0.25392,-0.630636 -1.72063,-0.150684 -1.98307,0.476453 -0.0901,0.215321 0.15511,0.551068 0.36143,0.599756 z"
       sodipodi:nodetypes="aaaaa" /><path
       id="path7"
       style="fill:#ffffff;fill-opacity:1;stroke:none;stroke-width:0.208088;stroke-linecap:round;stroke-linejoin:round"
       d="m 149.69792,97.230923 c 0.3297,0.08402 0.56062,-0.461795 0.85553,-0.669783 0.21721,-0.153188 0.76848,-0.164836 0.67159,-0.424726 -0.23912,-0.64136 -1.62034,-0.153247 -1.86748,0.484554 -0.0848,0.218983 0.14607,0.560439 0.34036,0.609955 z"
       sodipodi:nodetypes="aaaaa" /><path
       id="path12"
       style="mix-blend-mode:difference;fill:url(#linearGradient16);stroke:none;stroke-width:0.439795;stroke-linecap:round;stroke-linejoin:round"
       d="m 145.96852,102.23265 c 0.62872,0.31559 0.74962,-1.22318 1.29744,-1.66451 0.46303,-0.37302 1.25054,-0.29693 1.60805,-0.772035 0.39808,-0.529026 0.89827,-1.61866 0.33012,-1.958582 -0.93246,-0.557892 -1.97197,1.094209 -2.57636,1.997224 -0.46108,0.688903 -1.40012,2.026033 -0.65925,2.397903 z"
       sodipodi:nodetypes="aaaaaa" /><path
       id="path9"
       style="fill:#ffffff;fill-opacity:1;stroke:none;stroke-width:0.439795;stroke-linecap:round;stroke-linejoin:round"
       d="m 145.67222,101.91548 c 0.62872,0.31559 0.74962,-1.22318 1.29744,-1.66451 0.46303,-0.373018 1.25054,-0.296926 1.60805,-0.772033 0.39808,-0.529026 0.89827,-1.61866 0.33012,-1.958582 -0.93246,-0.557892 -1.97197,1.094209 -2.57636,1.997224 -0.46108,0.688891 -1.40012,2.026031 -0.65925,2.397901 z"
       sodipodi:nodetypes="aaaaaa" /><path
       id="path17"
       style="mix-blend-mode:difference;fill:url(#linearGradient17);stroke:none;stroke-width:0.628003;stroke-linecap:round;stroke-linejoin:round"
       d="m 163.83835,112.19355 c 0.58425,-0.95428 1.78902,-2.57646 0.88636,-3.23765 -1.42952,-1.04709 -2.8535,2.14814 -4.46507,2.88483 -1.33727,0.61133 -3.31994,0.0844 -4.23453,1.23566 -0.62663,0.78882 -0.88115,2.30564 -0.16837,3.01759 0.93321,0.93213 2.73471,0.28628 3.95055,-0.22504 1.67617,-0.70491 3.08161,-2.12459 4.03106,-3.67539 z"
       sodipodi:nodetypes="aaaaaaa" /><path
       id="path16"
       style="fill:#ffffff;fill-opacity:1;stroke:none;stroke-width:0.628003;stroke-linecap:round;stroke-linejoin:round"
       d="m 164.1246,112.90916 c 0.58425,-0.95428 1.78902,-2.57646 0.88636,-3.23765 -1.42952,-1.04709 -2.8535,2.14814 -4.46507,2.88483 -1.33727,0.61133 -3.31994,0.0844 -4.23453,1.23566 -0.62663,0.78882 -0.88115,2.30564 -0.16837,3.01759 0.93321,0.93213 2.73471,0.28628 3.95055,-0.22504 1.67617,-0.70491 3.08161,-2.12459 4.03106,-3.67539 z"
       sodipodi:nodetypes="aaaaaaa" /><circle
       style="fill:url(#linearGradient19);fill-opacity:1;stroke:none;stroke-width:0.324736;stroke-linecap:round;stroke-linejoin:round"
       id="circle17"
       cx="158.69543"
       cy="106.19633"
       r="2.3441951" /><path
       id="circle6"
       style="mix-blend-mode:normal;fill:#fec93a;fill-opacity:1;stroke-width:1.42727;stroke-linecap:round;stroke-linejoin:round"
       d="m 145.67361,111.33393 c -0.28044,-0.48802 -0.96314,-1.38553 -0.45438,-1.6263 0.513,-0.24278 0.69314,0.90291 0.9776,1.39402 0.27509,0.47496 1.15054,1.17893 0.69896,1.4909 -0.48115,0.33239 -0.9308,-0.75158 -1.22218,-1.25862 z"
       sodipodi:nodetypes="aaaaa" /><path
       id="path6"
       style="mix-blend-mode:normal;fill:#fec93a;fill-opacity:1;stroke-width:1.42727;stroke-linecap:round;stroke-linejoin:round"
       d="m 147.4951,113.83627 c -0.17457,-0.12228 -0.36616,-0.44722 -0.2185,-0.60092 0.2043,-0.21266 0.64844,0.047 0.84286,0.26873 0.22725,0.25916 0.48147,0.84587 0.18272,1.01777 -0.30595,0.17603 -0.47573,-0.56385 -0.80706,-0.68558 -10e-6,0 -10e-6,0 -2e-5,0 z"
       sodipodi:nodetypes="aaaaaa" /><path
       id="path25"
       style="mix-blend-mode:difference;fill:url(#linearGradient26);stroke-width:2.4872;stroke-linecap:round;stroke-linejoin:round"
       d="m 152.91866,114.9695 c 0.0553,0.49996 0.59913,1.27855 1.17908,1.08845 0.55329,-0.1815 0.11289,-0.96711 0.13056,-1.45004 0.0193,-0.52621 0.58671,-1.47941 -0.0268,-1.57419 -0.83391,-0.12884 -1.36074,1.22938 -1.28281,1.93578 z"
       sodipodi:nodetypes="aaaaa" /><path
       id="path13"
       style="mix-blend-mode:normal;fill:#ffffff;fill-opacity:1;stroke-width:2.4872;stroke-linecap:round;stroke-linejoin:round"
       d="m 153.22385,115.91558 c 0.0553,0.49996 0.59913,1.27855 1.17908,1.08845 0.55329,-0.1815 0.11289,-0.96711 0.13056,-1.45004 0.0193,-0.52621 0.58671,-1.47941 -0.0268,-1.57419 -0.83391,-0.12884 -1.36074,1.22938 -1.28281,1.93578 z"
       sodipodi:nodetypes="aaaaa" /><path
       id="path15"
       style="mix-blend-mode:difference;fill:url(#linearGradient22);stroke-width:1.42727;stroke-linecap:round;stroke-linejoin:round"
       d="m 161.79899,98.517612 c 0.22977,0.09946 0.54835,0.363949 0.45617,0.596736 -0.0617,0.1559 -0.34581,0.15613 -0.49628,0.08214 -0.21728,-0.106834 -0.45728,-0.426129 -0.34366,-0.639944 0.0603,-0.113545 0.26577,-0.09001 0.38377,-0.03894 z"
       sodipodi:nodetypes="aaaaa" /><path
       id="path14"
       style="mix-blend-mode:normal;fill:#ffffff;fill-opacity:1;stroke-width:1.42727;stroke-linecap:round;stroke-linejoin:round"
       d="m 162.12959,98.187016 c 0.20359,0.09414 0.43025,0.36947 0.34578,0.577255 -0.0594,0.146085 -0.31178,0.181805 -0.45732,0.121106 -0.22017,-0.09182 -0.45871,-0.404848 -0.35665,-0.620464 0.0677,-0.142995 0.32459,-0.144297 0.46819,-0.0779 z"
       sodipodi:nodetypes="aaaaa" /><path
       id="path18"
       style="fill:#fedc38;fill-opacity:1;stroke:none;stroke-width:0.217356;stroke-linecap:round;stroke-linejoin:round"
       d="m 166.07439,107.15067 c -0.0588,0.3646 -0.40302,1.01706 -0.0127,1.11359 0.41027,0.10104 0.44704,-0.66485 0.50556,-1.04864 0.0555,-0.36426 0.23828,-1.06233 -0.15886,-1.10914 -0.39461,-0.0465 -0.27558,0.68279 -0.33399,1.04418 z"
       sodipodi:nodetypes="aaaaa" /><circle
       style="fill:url(#linearGradient23);fill-opacity:1;stroke:none;stroke-width:0.225198;stroke-linecap:round;stroke-linejoin:round"
       id="circle18"
       cx="-140.54555"
       cy="130.85779"
       r="1.6256504"
       transform="rotate(-102.54117)" /><path
       id="path28"
       style="fill:#fedc38;fill-opacity:1;stroke:none;stroke-width:0.304558;stroke-linecap:round;stroke-linejoin:round"
       d="m 157.76673,95.405345 c 0.50733,0.110828 1.35975,0.583145 1.56237,0.105806 0.22487,-0.529566 -0.72808,-1.027521 -1.29302,-1.154917 -0.57997,-0.130763 -1.6872,-0.08919 -1.70962,0.500777 -0.0187,0.509934 0.93739,0.438252 1.44025,0.548285 z"
       sodipodi:nodetypes="aaaaaa"
       inkscape:transform-center-x="-0.055879191"
       inkscape:transform-center-y="0.12579851" /><circle
       style="opacity:1;fill:#fedc38;fill-opacity:1;stroke-width:1.01355;stroke-linecap:round;stroke-linejoin:round"
       id="path29"
       cx="161.6219"
       cy="83.886963"
       r="0.29385832"
       transform="rotate(3.9217822)" /><path
       id="circle29"
       style="opacity:1;fill:#fedc38;stroke-width:1.13498;stroke-linecap:round;stroke-linejoin:round"
       d="m 167.15657,107.25622 c -0.0245,0.20828 -0.11662,0.57697 -0.24224,0.52743 -0.10815,-0.0427 -0.0226,-0.35873 -0.005,-0.53866 0.021,-0.21488 -0.006,-0.61519 0.13,-0.62761 0.1436,-0.0131 0.14439,0.41286 0.11721,0.63884 z"
       sodipodi:nodetypes="aaaaa" /><rect
       style="font-variation-settings:normal;opacity:1;vector-effect:none;fill:url(#linearGradient1);fill-opacity:1;stroke:none;stroke-width:0.499999;stroke-linecap:round;stroke-linejoin:round;stroke-miterlimit:4;stroke-dasharray:none;stroke-dashoffset:0;stroke-opacity:1;-inkscape-stroke:none;stop-color:#000000;stop-opacity:1"
       id="rect1"
       width="2.6081986"
       height="20.979927"
       x="172.85353"
       y="96.234993" /><rect
       style="font-variation-settings:normal;opacity:1;vector-effect:none;fill:url(#linearGradient2);fill-opacity:1;stroke:none;stroke-width:0.499999;stroke-linecap:round;stroke-linejoin:round;stroke-miterlimit:4;stroke-dasharray:none;stroke-dashoffset:0;stroke-opacity:1;-inkscape-stroke:none;stop-color:#000000;stop-opacity:1"
       id="rect2"
       width="2.6081986"
       height="20.979927"
       x="175.46173"
       y="96.234993" /><rect
       style="font-variation-settings:normal;opacity:1;vector-effect:none;fill:url(#linearGradient6);fill-opacity:1;stroke:none;stroke-width:0.499999;stroke-linecap:round;stroke-linejoin:round;stroke-miterlimit:4;stroke-dasharray:none;stroke-dashoffset:0;stroke-opacity:1;-inkscape-stroke:none;stop-color:#000000;stop-opacity:1"
       id="rect5"
       width="2.6081986"
       height="20.979927"
       x="178.06993"
       y="96.234993" /><rect
       style="font-variation-settings:normal;opacity:1;vector-effect:none;fill:url(#linearGradient37);fill-opacity:1;stroke:none;stroke-width:0.288675;stroke-linecap:round;stroke-linejoin:round;stroke-miterlimit:4;stroke-dasharray:none;stroke-dashoffset:0;stroke-opacity:1;-inkscape-stroke:none;stop-color:#000000;stop-opacity:1"
       id="rect9"
       width="2.6081986"
       height="6.9933066"
       x="183.28633"
       y="96.234993" /><rect
       style="font-variation-settings:normal;opacity:1;vector-effect:none;fill:url(#linearGradient9);fill-opacity:0.917647;stroke:none;stroke-width:0.499999;stroke-linecap:round;stroke-linejoin:round;stroke-miterlimit:4;stroke-dasharray:none;stroke-dashoffset:0;stroke-opacity:1;-inkscape-stroke:none;stop-color:#000000;stop-opacity:1"
       id="rect7"
       width="2.6081986"
       height="20.979927"
       x="180.67813"
       y="-117.21492"
       transform="scale(1,-1)" /><rect
       style="font-variation-settings:normal;opacity:1;vector-effect:none;fill:url(#linearGradient39);fill-opacity:1;stroke:none;stroke-width:0.288675;stroke-linecap:round;stroke-linejoin:round;stroke-miterlimit:4;stroke-dasharray:none;stroke-dashoffset:0;stroke-opacity:1;-inkscape-stroke:none;stop-color:#000000;stop-opacity:1"
       id="rect27"
       width="2.6081986"
       height="6.9933066"
       x="183.28633"
       y="103.2283" /><rect
       style="font-variation-settings:normal;opacity:1;vector-effect:none;fill:url(#linearGradient41);fill-opacity:1;stroke:none;stroke-width:0.288675;stroke-linecap:round;stroke-linejoin:round;stroke-miterlimit:4;stroke-dasharray:none;stroke-dashoffset:0;stroke-opacity:1;-inkscape-stroke:none;stop-color:#000000;stop-opacity:1"
       id="rect28"
       width="2.6081986"
       height="6.9933066"
       x="183.28633"
       y="110.22161" /><g
       id="g41"
       clip-path="url(#clipPath41)"
       style="mix-blend-mode:exclusion"
       inkscape:transform-center-x="20.02465"
       inkscape:transform-center-y="-0.12333643"><path
         style="mix-blend-mode:exclusion;fill:#b7fe3a;fill-opacity:1;stroke:none;stroke-width:1.81085;stroke-linecap:round;stroke-linejoin:round"
         id="circle41"
         sodipodi:type="arc"
         sodipodi:cx="-151.45697"
         sodipodi:cy="111.59602"
         sodipodi:rx="13.07206"
         sodipodi:ry="13.07206"
         sodipodi:start="3.1415927"
         sodipodi:end="6.25841"
         sodipodi:arc-type="slice"
         d="m -164.52903,111.59602 a 13.07206,13.07206 0 0 1 12.91013,-13.071053 13.07206,13.07206 0 0 1 13.22998,12.747223 l -13.06805,0.32383 z"
         inkscape:transform-center-x="4.349162"
         inkscape:transform-center-y="0.61489329"
         transform="rotate(-109.34818)" /></g><rect
       style="font-variation-settings:normal;opacity:1;vector-effect:none;fill:#250722;fill-opacity:1;stroke:none;stroke-width:0.499999;stroke-linecap:round;stroke-linejoin:round;stroke-miterlimit:4;stroke-dasharray:none;stroke-dashoffset:0;stroke-opacity:1;-inkscape-stroke:none;stop-color:#000000;stop-opacity:1"
       id="rect42"
       width="2.6081986"
       height="20.979916"
       x="185.89453"
       y="96.234993" /></g></svg>
